<svg width="65" height="65" viewBox="0 0 65 65" fill="none" xmlns="http://www.w3.org/2000/svg">
<g clip-path="url(#clip0_43_35)">
<path d="M62.029 17.707C60.1981 16.7916 58.0396 16.9839 56.4037 18.2161C56.2981 18.2947 56.1979 18.3841 56.1058 18.4761L51.3473 23.278C50.7758 16.3311 45.0071 10.8359 37.9167 10.8359H13.5417C6.07479 10.8332 0 16.908 0 24.3749V40.6249C0 48.0918 6.07479 54.1666 13.5417 54.1666H37.9167C45.0369 54.1666 50.83 48.6226 51.3554 41.6351L56.1112 46.3855C56.2033 46.4749 56.2981 46.5561 56.401 46.6347C57.3544 47.3497 58.481 47.7126 59.6185 47.7126C60.4392 47.7126 61.2598 47.5257 62.029 47.1412C63.8625 46.2257 65 44.3814 65 42.3366V22.517C65 20.4668 63.8625 18.6224 62.029 17.707ZM37.9167 48.7499H13.5417C9.06208 48.7499 5.41667 45.1045 5.41667 40.6249V24.3749C5.41667 19.8953 9.06208 16.2499 13.5417 16.2499H37.9167C42.3962 16.2499 46.0417 19.8953 46.0417 24.3749V40.6249C46.0417 45.1045 42.3962 48.7499 37.9167 48.7499ZM51.4583 34.0789V30.8586L59.5833 22.6578L59.651 42.2607L51.4583 34.0761V34.0789Z" fill="#C0B7E8"/>
</g>
<defs>
<clipPath id="clip0_43_35">
<rect width="65" height="65" fill="white"/>
</clipPath>
</defs>
</svg>
