<?xml version="1.0" standalone="no"?>
<!DOCTYPE svg PUBLIC "-//W3C//DTD SVG 20010904//EN"
 "http://www.w3.org/TR/2001/REC-SVG-20010904/DTD/svg10.dtd">
<svg version="1.0" xmlns="http://www.w3.org/2000/svg"
 width="498.000000pt" height="434.000000pt" viewBox="0 0 498.000000 434.000000"
 preserveAspectRatio="xMidYMid meet">

<g transform="translate(0.000000,434.000000) scale(0.100000,-0.100000)"
fill="#000000" stroke="none">
<path d="M156 4318 c-8 -13 -46 -76 -85 -140 l-71 -117 0 -1753 0 -1753 42
-22 c24 -12 66 -25 93 -28 28 -3 74 -13 103 -21 30 -9 65 -13 82 -9 21 5 46
-1 86 -19 54 -25 57 -25 123 -11 38 8 86 21 107 29 22 8 89 17 149 20 166 10
235 16 285 27 25 5 65 8 90 8 47 -2 160 23 222 49 l38 15 -5 84 -4 83 27 -6
c48 -12 93 -64 98 -114 1 -14 2 -29 3 -34 1 -8 231 -1 292 9 13 2 56 6 94 10
39 3 88 8 110 10 22 2 76 7 120 11 44 3 112 10 150 14 39 5 78 10 88 10 10 0
17 8 17 19 0 10 7 24 15 31 17 15 19 7 5 -21 -9 -16 -7 -19 9 -19 11 0 37 9
57 21 21 11 56 23 78 25 23 3 43 9 44 15 2 5 8 7 13 3 5 -3 9 -1 9 4 0 26 133
15 153 -12 6 -8 10 -7 14 2 4 10 8 10 21 0 13 -11 14 -11 8 1 -7 10 -4 12 12
7 11 -4 23 -2 27 4 3 6 11 8 17 4 5 -3 23 6 39 22 l29 28 0 -24 c0 -13 -8 -32
-17 -43 -10 -11 -12 -17 -5 -13 27 16 8 -9 -55 -72 l-66 -67 -5 -75 c-4 -59
-11 -84 -34 -122 -16 -26 -38 -50 -49 -53 -20 -7 -58 -75 -59 -104 0 -7 -10
-23 -22 -34 -17 -15 -18 -18 -5 -14 12 5 17 1 17 -11 0 -28 -28 -61 -69 -81
-42 -22 -55 -36 -65 -68 l-7 -23 1089 0 1089 0 141 234 142 233 0 953 0 953
-20 -18 c-15 -14 -19 -26 -15 -47 9 -40 -13 -69 -132 -178 -101 -92 -189 -158
-245 -182 -21 -10 -67 -67 -60 -75 1 -2 2 -11 2 -21 0 -13 -27 -32 -93 -65
-51 -26 -96 -47 -100 -47 -12 0 -112 -67 -127 -85 -22 -26 -61 -42 -124 -49
-33 -4 -85 -17 -115 -31 -40 -16 -83 -25 -147 -29 -56 -3 -109 -13 -135 -24
-50 -22 -145 -31 -335 -34 -72 -1 -140 -5 -151 -9 -15 -5 -23 -21 -29 -51 -4
-24 -8 -45 -9 -48 -1 -3 -5 -25 -10 -50 -5 -25 -9 -47 -10 -50 -1 -6 -15 -86
-21 -120 -25 -158 -116 -322 -195 -354 -21 -8 -40 -20 -44 -26 -5 -8 -11 -8
-21 1 -11 9 -14 8 -14 -4 0 -11 -5 -14 -16 -10 -13 5 -13 7 -2 14 12 8 4 13
-14 10 -5 0 -8 4 -8 10 0 6 -10 9 -23 7 -13 -2 -29 1 -35 9 -7 7 -22 13 -32
13 -19 0 -24 10 -20 39 1 9 -4 12 -14 8 -10 -4 -16 -1 -16 7 0 7 -7 19 -15 26
-21 17 -1 50 29 50 26 0 43 26 23 34 -7 2 -3 5 8 5 16 1 17 3 6 10 -12 8 -8
17 19 48 39 44 56 56 70 48 6 -3 10 0 10 7 0 17 63 43 68 28 5 -14 29 -13 34
2 2 6 11 12 19 14 7 1 22 5 32 9 12 5 17 2 17 -9 0 -10 6 -13 15 -10 18 7 20
-10 3 -24 -18 -15 -44 -19 -43 -7 0 6 3 9 8 8 4 -2 7 4 7 12 0 20 -6 19 -30
-7 -28 -30 -26 -35 18 -43 20 -4 31 -10 25 -12 -7 -3 -13 -9 -13 -15 0 -6 9
-3 20 7 12 10 18 25 15 32 -2 8 0 11 5 8 6 -4 14 2 18 12 13 31 47 83 54 83 8
0 -2 -42 -15 -58 -5 -7 -8 -15 -5 -17 10 -10 26 21 37 73 13 62 14 92 4 91
-23 -4 -25 3 -5 17 13 9 21 23 19 32 -2 10 3 30 10 45 11 22 12 32 2 43 -6 8
-9 17 -5 21 3 3 6 0 6 -7 0 -33 24 12 25 47 3 53 16 113 24 113 4 0 8 16 9 35
1 19 7 45 14 58 6 12 13 27 15 32 19 73 29 101 37 106 5 4 6 22 2 40 -4 24 -3
30 4 19 8 -13 10 -13 10 2 0 9 -4 18 -10 20 -5 2 1 8 14 14 l23 11 -17 -67
c-10 -37 -21 -74 -25 -81 -4 -8 3 -3 14 11 11 14 37 57 58 95 20 39 56 99 81
134 47 70 48 76 17 162 -10 30 -27 51 -46 63 -22 13 -28 23 -24 36 8 24 -5 27
-145 35 -58 4 -115 9 -127 12 -20 4 -24 -3 -48 -84 -47 -159 -46 -156 -88
-159 -43 -2 -46 8 -22 96 8 30 15 68 15 84 l0 29 -80 -7 c-63 -5 -87 -3 -110
9 -30 16 -50 13 -50 -7 0 -5 -25 -51 -55 -100 l-55 -90 30 -87 c17 -47 35 -95
40 -106 5 -11 25 -65 45 -120 62 -171 68 -186 76 -191 5 -3 9 -16 9 -29 0 -33
-33 -49 -89 -42 -25 3 -80 -1 -121 -8 -143 -24 -255 -46 -293 -56 -54 -14
-188 -30 -290 -35 -79 -3 -90 -1 -123 21 -46 31 -69 31 -106 0 -38 -32 -59
-31 -161 5 -62 23 -90 39 -107 62 l-22 30 -102 -6 c-165 -11 -204 -22 -249
-70 -24 -27 -43 -60 -53 -96 -22 -81 -27 -90 -83 -156 -32 -39 -65 -68 -89
-77 -44 -18 -49 -22 -91 -102 -42 -78 -78 -125 -96 -125 -54 0 1 183 75 250
19 17 43 97 43 148 1 56 -1 62 -43 113 -25 29 -60 67 -79 84 -30 28 -32 34
-22 54 7 12 25 24 41 28 16 3 36 13 44 22 25 27 66 111 55 111 -6 0 -9 16 -7
37 3 35 7 39 70 70 45 22 75 45 95 72 26 37 79 78 89 69 2 -3 -8 -31 -22 -64
-20 -47 -33 -63 -62 -76 -31 -15 -82 -71 -82 -90 0 -3 13 -8 30 -11 27 -6 30
-10 30 -47 0 -22 -9 -54 -20 -72 -19 -32 -28 -108 -12 -108 17 1 30 18 54 70
23 50 64 101 174 213 22 23 52 50 65 59 21 14 22 19 11 35 -36 52 -37 64 -12
84 21 16 23 20 10 29 -8 6 -26 13 -40 16 -14 3 -35 9 -48 13 l-23 6 21 28 c31
39 73 37 96 -5 9 -18 23 -46 31 -61 9 -16 23 -31 32 -34 9 -3 46 -19 83 -34
97 -42 179 -37 91 5 -66 32 -109 73 -128 123 -10 26 -22 54 -28 61 -7 9 -4 19
9 35 28 33 268 267 274 267 3 0 10 -21 16 -46 12 -51 2 -64 -34 -45 -15 8 -24
6 -41 -10 -24 -23 -27 -44 -7 -52 19 -8 85 3 92 14 3 5 10 9 15 9 6 0 1 -12
-10 -26 -22 -29 -27 -49 -12 -58 14 -9 41 4 41 20 0 7 12 26 26 41 25 27 26
28 5 31 -16 3 -21 11 -21 35 0 18 -7 42 -15 54 -13 19 -13 23 0 36 11 12 12
16 2 20 -6 2 -10 7 -7 10 6 6 75 16 121 17 26 0 63 16 130 57 120 72 178 92
271 91 40 -1 98 2 128 6 45 5 51 4 36 -5 -11 -7 -36 -14 -55 -16 -20 -2 -48
-7 -62 -12 -14 -5 -46 -7 -70 -4 -29 3 -56 -1 -79 -11 -19 -9 -28 -15 -20 -13
15 4 50 -22 50 -36 0 -5 -7 -4 -15 3 -12 10 -15 9 -15 -5 0 -9 9 -19 20 -22
13 -3 20 -14 20 -28 0 -12 7 -28 15 -35 8 -7 13 -16 10 -20 -7 -11 22 -33 35
-25 16 10 6 -33 -13 -55 -9 -11 -14 -20 -10 -20 4 0 -2 -7 -13 -15 -17 -13
-17 -14 -1 -15 9 0 17 5 17 11 0 5 16 17 35 25 20 8 39 22 42 31 5 13 9 12 25
-8 l19 -24 -7 29 c-5 21 -4 27 5 22 6 -4 11 -13 11 -21 0 -14 27 -28 40 -20 5
3 16 -5 25 -17 10 -15 18 -19 23 -12 4 6 26 15 50 19 26 4 41 12 39 18 -2 7
-12 11 -21 9 -9 -2 -15 3 -14 10 2 8 -4 12 -16 10 -18 -3 -18 -3 0 16 11 11
27 21 37 23 18 4 25 24 9 24 -14 0 -39 29 -47 54 -6 20 -4 22 14 16 25 -8 61
10 61 30 0 8 -5 15 -10 15 -13 0 -2 48 17 75 l14 20 -2 -20 c-5 -48 1 -65 19
-58 9 4 23 13 31 20 7 8 16 11 19 8 3 -3 0 -11 -6 -17 -7 -7 -12 -18 -12 -26
0 -7 -7 -20 -15 -28 -8 -9 -15 -21 -15 -27 0 -8 3 -7 9 2 6 9 11 10 15 2 11
-17 26 -13 20 7 -2 9 1 7 7 -6 12 -23 37 -23 66 0 8 6 18 3 32 -11 12 -12 22
-21 24 -20 1 0 10 -3 20 -7 10 -3 28 -1 40 5 12 7 35 19 51 28 27 15 30 14 44
-3 13 -18 14 -18 8 2 -4 13 -1 26 9 34 12 10 15 9 16 -6 0 -15 2 -15 6 -4 18
46 83 72 83 33 0 -10 -6 -13 -16 -9 -20 8 -59 -13 -47 -25 14 -14 70 -14 87 0
9 7 25 11 36 8 11 -3 40 5 64 18 24 13 47 20 51 17 4 -4 6 0 3 8 -3 9 5 19 21
26 32 13 179 8 197 -7 11 -9 18 -8 29 1 14 11 13 14 -1 24 -15 11 -15 14 1 29
21 21 39 22 56 0 13 -15 11 -16 -13 -11 -20 4 -28 1 -28 -8 0 -8 5 -14 12 -14
6 0 3 -6 -8 -14 -17 -13 -18 -15 -2 -21 9 -4 21 -4 26 -1 6 3 12 -1 16 -9 3
-9 12 -12 23 -8 12 4 10 0 -7 -14 -21 -18 -22 -20 -5 -19 11 1 33 6 48 10 23
7 31 5 43 -13 17 -23 36 -29 28 -7 -7 19 50 43 62 25 3 -5 14 -9 24 -9 10 0
26 -10 34 -22 9 -12 16 -17 16 -11 0 7 -4 15 -10 18 -20 12 -10 35 16 35 14 0
23 4 19 9 -3 5 9 9 26 9 29 -1 30 -2 14 -14 -17 -12 -17 -14 -1 -20 9 -3 23
-1 30 5 10 8 16 9 21 2 4 -7 15 -5 30 5 14 9 22 20 20 25 -3 4 3 13 14 18 16
9 21 7 26 -8 7 -23 47 -40 53 -23 2 6 10 8 18 5 8 -3 14 1 14 11 0 9 5 16 10
16 6 0 10 -5 10 -11 0 -5 4 -8 9 -5 5 3 14 -1 21 -9 16 -19 31 -20 24 -1 -3 8
-1 17 5 21 6 3 11 -1 11 -9 0 -9 6 -16 13 -16 9 0 8 -3 -2 -9 -9 -6 -10 -14
-4 -26 9 -15 11 -15 26 -1 8 9 20 16 26 16 6 0 11 9 11 19 0 11 4 22 8 25 5 3
8 -10 7 -29 0 -25 4 -35 18 -39 13 -3 17 0 13 10 -3 8 1 14 9 14 19 0 19 29 0
54 -8 11 -15 29 -15 39 0 29 27 3 35 -34 5 -22 12 -29 31 -29 13 0 24 6 24 13
1 8 5 7 13 -4 7 -9 18 -14 26 -11 8 3 11 0 7 -7 -13 -20 5 -33 20 -14 19 26
17 63 -6 97 -19 30 -19 30 1 44 29 20 57 23 73 6 11 -11 16 -11 20 -1 5 9 7 9
12 0 8 -18 24 -16 24 3 0 10 4 12 13 7 6 -4 20 -6 30 -5 9 2 17 -3 17 -10 0
-9 3 -9 10 2 6 9 10 10 10 3 0 -8 9 -9 32 -3 20 6 36 6 44 -1 8 -6 14 -7 18 0
4 5 16 8 29 6 27 -5 95 -6 157 -3 59 4 80 -6 73 -33 -4 -15 -3 -20 6 -15 6 4
9 11 6 16 -3 4 3 14 12 21 12 10 14 10 9 2 -4 -8 -2 -13 4 -13 7 0 9 8 5 19
-3 11 -1 22 5 26 5 3 10 13 10 22 0 11 -3 13 -13 5 -7 -6 -19 -7 -26 -3 -10 6
-9 10 4 15 10 4 15 12 11 21 -3 9 1 18 9 21 8 4 15 10 15 16 0 5 -4 7 -9 3
-12 -6 -41 33 -41 55 0 10 6 8 19 -9 10 -13 20 -20 23 -15 2 5 6 60 7 122 2
125 5 122 -69 97 -91 -30 -248 -75 -261 -75 -23 1 82 47 136 59 28 7 83 22
123 34 l72 22 0 187 c0 104 -2 188 -4 188 -4 0 -63 -24 -116 -47 -118 -52
-240 -103 -246 -103 -2 0 -4 4 -4 9 0 5 15 14 33 21 17 6 55 22 83 36 28 13
55 24 59 24 5 0 27 9 49 19 23 11 65 29 94 41 l52 22 0 103 0 102 -88 11 c-61
7 -113 7 -168 1 -43 -6 -109 -9 -146 -6 -53 3 -74 0 -95 -14 -29 -19 -56 -17
-104 7 -24 12 -28 11 -48 -10 -20 -21 -33 -24 -130 -28 -94 -4 -115 -8 -174
-36 -37 -17 -67 -29 -67 -27 0 9 105 67 125 69 12 1 50 17 85 35 34 18 80 39
101 46 37 13 39 13 39 -5 0 -16 7 -20 30 -20 17 0 30 3 30 6 0 11 -23 49 -34
56 -12 8 5 12 38 8 11 -1 16 3 11 9 -4 7 13 19 42 32 26 11 61 27 77 35 51 25
40 6 -13 -23 -28 -15 -51 -31 -51 -36 0 -17 53 -28 86 -17 28 10 88 70 69 70
-3 0 -1 9 5 20 6 11 7 20 3 20 -4 0 -9 14 -9 32 -1 17 -8 36 -16 42 -7 6 -14
21 -15 33 -2 28 -69 173 -80 172 -4 0 -39 -36 -78 -80 -38 -44 -87 -99 -107
-122 -40 -44 -44 -52 -28 -62 16 -10 11 -25 -7 -24 -11 0 -13 3 -5 6 6 2 9 9
6 15 -7 10 -84 -69 -84 -87 0 -12 -70 -59 -77 -51 -3 2 17 33 43 67 27 34 58
73 69 88 11 14 46 53 77 85 54 55 68 76 52 76 -4 0 -26 -16 -49 -35 -32 -25
-55 -36 -88 -38 -24 -2 -49 -7 -55 -11 -6 -4 -8 2 -5 14 3 11 8 18 12 16 4 -3
12 4 19 14 9 16 9 18 -2 14 -8 -3 -17 -1 -20 4 -3 6 -14 8 -25 5 -22 -6 -38
26 -19 40 9 6 6 7 -9 4 -13 -3 -23 -1 -23 4 0 5 9 9 19 9 11 0 21 6 24 13 3 8
10 5 23 -9 14 -15 25 -19 39 -13 17 6 17 8 3 8 -22 1 -24 21 -3 21 9 0 15 9
15 22 0 15 3 19 10 12 16 -16 101 26 94 46 -4 12 -3 13 7 3 19 -19 29 -16 29
7 0 11 6 21 13 22 6 0 17 2 22 3 6 2 15 3 20 4 6 1 5 5 -2 9 -9 6 -7 11 6 19
16 10 18 9 14 -8 -6 -23 -10 -23 69 -3 35 9 68 17 75 18 24 4 23 14 -2 20 -17
4 -31 1 -41 -9 -20 -19 -35 -19 -28 0 5 13 -13 15 -125 15 -81 0 -131 -4 -131
-10 0 -5 -5 -10 -11 -10 -5 0 -7 5 -4 10 4 7 -671 10 -2019 10 l-2026 0 -14
-22z m4318 -3 c-4 -8 -13 -15 -21 -15 -13 0 -13 3 -3 15 7 8 16 15 21 15 5 0
6 -7 3 -15z m-264 -39 c0 -3 -4 -8 -10 -11 -5 -3 -10 -1 -10 4 0 6 5 11 10 11
6 0 10 -2 10 -4z m-144 -54 c-17 -16 -18 -16 -5 5 7 12 15 20 18 17 3 -2 -3
-12 -13 -22z m104 -12 c0 -5 -5 -10 -11 -10 -5 0 -7 5 -4 10 3 6 8 10 11 10 2
0 4 -4 4 -10z m-148 -33 c-12 -13 -22 -28 -22 -34 0 -6 -7 -13 -14 -16 -21 -8
-8 22 23 53 32 32 43 29 13 -3z m54 -23 c-6 -16 -8 -16 -16 -4 -6 8 -10 24
-10 35 0 18 1 18 16 3 10 -10 14 -23 10 -34z m74 36 c8 -5 12 -12 9 -15 -8 -8
-39 5 -39 16 0 11 11 11 30 -1z m-190 -70 c0 -5 -5 -10 -11 -10 -5 0 -7 5 -4
10 3 6 8 10 11 10 2 0 4 -4 4 -10z m-131 -43 c-2 -2 -21 -15 -41 -30 -21 -16
-38 -25 -38 -22 0 12 53 55 68 55 8 0 13 -1 11 -3z m-2915 -23 c7 -19 -1 -34
-19 -34 -18 0 -28 17 -21 35 7 20 32 19 40 -1z m3171 -24 c3 -5 15 -10 26 -10
18 0 20 -6 18 -51 -2 -31 -8 -53 -16 -56 -7 -3 -10 -9 -7 -14 3 -5 -5 -19 -18
-31 -43 -41 -98 -115 -91 -121 3 -4 1 -7 -5 -7 -7 0 -11 -3 -9 -7 1 -5 -2 -9
-6 -10 -4 -1 -34 -16 -65 -34 l-57 -31 25 28 c14 16 49 52 78 81 30 29 52 58
50 65 -3 7 4 21 14 32 10 11 18 26 18 34 0 9 -7 6 -21 -9 -11 -13 -17 -17 -13
-9 12 22 13 40 3 40 -14 0 -10 30 6 46 21 21 19 41 -5 47 -11 3 -20 10 -20 16
0 14 87 15 95 1z m-282 -76 c-2 -5 -18 -9 -35 -9 -32 0 -60 -24 -93 -80 -6 -9
-25 -19 -43 -21 -19 -2 -38 -6 -43 -9 -5 -4 -6 1 -3 10 4 9 9 14 12 11 9 -10
57 22 98 66 35 37 48 44 75 43 19 -1 33 -6 32 -11z m117 -59 c0 -8 -7 -15 -16
-15 -14 0 -14 3 -4 15 7 8 14 15 16 15 2 0 4 -7 4 -15z m-23 -42 c9 -7 11 -13
4 -18 -6 -3 -11 -1 -11 5 0 6 -4 8 -10 5 -6 -4 -10 6 -9 22 0 15 3 21 6 13 3
-8 12 -20 20 -27z m21 -95 c-2 -14 -11 -24 -23 -25 -11 -2 -14 0 -7 3 6 3 12
14 12 25 0 10 5 19 11 19 6 0 9 -10 7 -22z m-422 -106 c-18 -16 -18 -16 -6 6
6 13 14 21 18 18 3 -4 -2 -14 -12 -24z m293 -47 l-19 -60 5 58 c5 64 13 83 26
70 4 -4 -1 -35 -12 -68z m-106 37 c-2 -6 2 -12 7 -12 14 0 12 -12 -6 -35 -12
-16 -16 -17 -23 -6 -7 12 -17 9 -54 -12 -55 -33 -74 -34 -72 -6 1 14 20 33 56
55 53 33 97 41 92 16z m247 -56 c0 -2 -7 -7 -16 -10 -8 -3 -12 -2 -9 4 6 10
25 14 25 6z m-41 -20 c-2 -2 -15 -9 -29 -15 -24 -11 -24 -11 -6 3 16 13 49 24
35 12z m-321 -48 c7 -7 12 -15 12 -20 0 -12 -28 2 -34 18 -7 17 6 18 22 2z
m42 -48 c0 -5 -7 -7 -15 -4 -8 4 -15 8 -15 10 0 2 7 4 15 4 8 0 15 -4 15 -10z
m-170 -14 c0 -2 -14 -21 -31 -42 -17 -22 -38 -52 -46 -69 l-14 -30 6 29 c8 39
85 141 85 112z m370 -50 c0 -3 -4 -8 -10 -11 -5 -3 -10 -1 -10 4 0 6 5 11 10
11 6 0 10 -2 10 -4z m-30 -46 c-6 -11 -15 -20 -21 -20 -6 0 -6 7 1 20 6 11 15
20 21 20 6 0 6 -7 -1 -20z m-64 -56 c-4 -9 -9 -15 -11 -12 -3 3 -3 13 1 22 4
9 9 15 11 12 3 -3 3 -13 -1 -22z m882 20 c-12 -12 -188 -81 -188 -74 0 5 21
16 48 26 26 10 60 25 76 34 27 15 75 25 64 14z m-918 -64 c0 -5 -5 -10 -11
-10 -5 0 -7 5 -4 10 3 6 8 10 11 10 2 0 4 -4 4 -10z m0 -24 c0 -3 -4 -8 -10
-11 -5 -3 -10 -1 -10 4 0 6 5 11 10 11 6 0 10 -2 10 -4z m645 -26 c-3 -5 -12
-10 -18 -10 -7 0 -6 4 3 10 19 12 23 12 15 0z m-661 -32 c6 -4 4 -9 -7 -14
-23 -9 -28 -3 -20 26 4 17 8 20 11 10 3 -8 10 -18 16 -22z m616 12 c-8 -5 -19
-10 -25 -10 -5 0 -3 5 5 10 8 5 20 10 25 10 6 0 3 -5 -5 -10z m-70 -30 c-8 -5
-19 -10 -25 -10 -5 0 -3 5 5 10 8 5 20 10 25 10 6 0 3 -5 -5 -10z m-900 -34
c0 -3 -4 -8 -10 -11 -5 -3 -10 -1 -10 4 0 6 5 11 10 11 6 0 10 -2 10 -4z m-44
-49 c-9 -13 -14 -33 -10 -43 5 -17 5 -17 -6 -2 -8 13 -7 25 5 49 9 17 19 29
22 26 2 -3 -3 -16 -11 -30z m1676 -122 c-2 -14 0 -25 6 -25 5 0 13 -7 16 -16
4 -12 2 -15 -9 -10 -8 3 -15 0 -15 -7 0 -8 -4 -7 -9 3 -6 8 -7 18 -4 24 3 5 1
6 -5 2 -20 -12 -21 11 -1 32 25 28 27 27 21 -3z m-1382 -117 c0 -4 -6 -8 -14
-8 -8 0 -17 4 -20 8 -2 4 4 8 15 8 10 0 19 -4 19 -8z m-256 -22 c-4 -11 3 -14
33 -11 21 2 69 6 106 10 41 3 83 1 107 -6 47 -14 54 -31 8 -22 -22 4 -29 3
-24 -6 4 -6 11 -9 15 -7 3 2 36 -1 71 -9 36 -7 95 -12 132 -11 77 2 122 -9 98
-24 -8 -5 -25 -10 -37 -10 -13 0 -23 -4 -23 -10 0 -9 -79 -6 -126 5 -12 2 -39
7 -60 11 -21 3 -47 10 -56 15 -20 11 -50 1 -45 -15 2 -6 13 -15 25 -21 12 -5
22 -14 22 -19 0 -4 -11 -1 -25 8 -14 9 -31 14 -37 10 -6 -4 -8 -3 -5 4 9 14
-3 43 -15 36 -5 -3 -7 -11 -5 -18 3 -7 -4 -13 -14 -13 -10 -1 -19 3 -19 8 0 6
4 8 9 5 5 -3 11 6 14 19 2 14 0 28 -6 32 -5 3 -7 1 -4 -4 9 -15 -19 -24 -51
-17 -80 16 -76 16 -63 0 10 -12 10 -16 1 -16 -6 0 -14 9 -17 20 -6 24 -19 26
-27 5 -3 -8 -10 -15 -15 -15 -6 0 -8 7 -4 16 4 10 -1 17 -16 21 -27 7 -17 23
14 23 13 0 27 5 30 10 9 15 15 12 9 -4z m-197 -9 c3 -4 -7 -8 -23 -8 -16 -1
-40 -2 -54 -3 -14 -1 -39 -3 -57 -4 -17 -1 -38 -9 -47 -17 -16 -16 -41 -21
-31 -6 3 5 -7 11 -22 13 -16 2 19 10 77 18 112 16 146 18 157 7z m-282 -36
c-51 -21 -91 -33 -106 -34 -9 -1 -15 -7 -12 -14 5 -12 -9 -18 -31 -14 -5 1
-16 -4 -25 -12 -28 -24 -91 -57 -91 -47 0 5 12 18 26 29 15 12 22 21 16 21
-23 0 -141 -60 -151 -77 -9 -15 -10 -15 -11 -2 0 21 25 40 85 66 68 30 77 32
97 22 12 -6 20 -4 25 6 10 17 136 63 173 64 22 0 23 -1 5 -8z m1220 -5 c39
-14 54 -29 37 -40 -4 -3 -21 2 -36 10 -16 7 -36 14 -46 14 -25 0 -50 10 -50
21 0 13 49 11 95 -5z m113 7 c-10 -2 -28 -2 -40 0 -13 2 -5 4 17 4 22 1 32 -1
23 -4z m-783 -33 c3 -5 1 -10 -4 -10 -6 0 -11 5 -11 10 0 6 2 10 4 10 3 0 8
-4 11 -10z m939 -21 c32 -31 14 -28 -29 4 -31 23 -35 28 -15 22 14 -4 34 -15
44 -26z m470 16 c-4 -8 -10 -12 -15 -9 -11 6 -2 24 11 24 5 0 7 -7 4 -15z
m-874 -15 c18 -16 20 -20 7 -20 -10 0 -17 6 -17 13 0 8 -4 7 -10 -3 -8 -12
-10 -11 -10 8 0 27 1 27 30 2z m290 -14 c0 -3 -4 -8 -10 -11 -5 -3 -10 -1 -10
4 0 6 5 11 10 11 6 0 10 -2 10 -4z m-585 -16 c3 -5 2 -10 -4 -10 -5 0 -13 5
-16 10 -3 6 -2 10 4 10 5 0 13 -4 16 -10z m80 -10 c3 -5 -1 -10 -10 -10 -9 0
-13 5 -10 10 3 6 8 10 10 10 2 0 7 -4 10 -10z m545 0 c0 -5 -4 -10 -10 -10 -5
0 -10 5 -10 10 0 6 5 10 10 10 6 0 10 -4 10 -10z m25 0 c3 -5 1 -10 -4 -10 -6
0 -11 5 -11 10 0 6 2 10 4 10 3 0 8 -4 11 -10z m-1840 -21 c-7 -11 -65 -29
-65 -20 0 9 38 28 57 28 7 0 10 -4 8 -8z m1662 -11 c-3 -8 -6 -5 -6 6 -1 11 2
17 5 13 3 -3 4 -12 1 -19z m-537 2 c-20 -13 -33 -13 -25 0 3 6 14 10 23 10 15
0 15 -2 2 -10z m385 -10 c3 -5 1 -10 -4 -10 -6 0 -11 5 -11 10 0 6 2 10 4 10
3 0 8 -4 11 -10z m232 -20 c0 -32 -11 -40 -20 -15 -4 8 -2 17 4 20 5 4 7 11 4
16 -4 5 -2 9 3 9 5 0 9 -13 9 -30z m153 10 c0 -5 -2 -10 -4 -10 -3 0 -8 5 -11
10 -3 6 -1 10 4 10 6 0 11 -4 11 -10z m-1095 -10 c3 -5 1 -10 -4 -10 -6 0 -11
5 -11 10 0 6 2 10 4 10 3 0 8 -4 11 -10z m565 0 c0 -5 -5 -10 -11 -10 -5 0 -7
5 -4 10 3 6 8 10 11 10 2 0 4 -4 4 -10z m-760 -15 c-7 -8 -20 -15 -29 -15 -11
0 -8 5 9 14 33 19 35 19 20 1z m98 -11 c2 -1 -4 -4 -12 -7 -8 -3 -16 2 -19 14
-5 17 -3 18 11 7 9 -7 18 -13 20 -14z m577 16 c3 -5 1 -10 -4 -10 -6 0 -11 5
-11 10 0 6 2 10 4 10 3 0 8 -4 11 -10z m-110 -10 c3 -5 1 -10 -4 -10 -6 0 -11
5 -11 10 0 6 2 10 4 10 3 0 8 -4 11 -10z m265 6 c0 -11 -19 -15 -25 -6 -3 5 1
10 9 10 9 0 16 -2 16 -4z m-785 -16 c3 -5 1 -10 -4 -10 -6 0 -11 5 -11 10 0 6
2 10 4 10 3 0 8 -4 11 -10z m-730 -20 c-10 -11 -23 -20 -29 -20 -6 0 0 9 14
20 32 25 38 25 15 0z m1505 -5 c0 -9 -6 -12 -16 -8 -13 5 -13 7 -2 14 17 11
18 11 18 -6z m-1405 -5 c3 -5 1 -10 -4 -10 -6 0 -11 5 -11 10 0 6 2 10 4 10 3
0 8 -4 11 -10z m-185 -62 c0 -6 -6 -5 -15 2 -8 7 -15 14 -15 16 0 2 7 1 15 -2
8 -4 15 -11 15 -16z m477 -9 c-11 -7 -23 -7 -28 -2 -5 5 3 9 19 11 24 1 25 0
9 -9z m-507 -70 c0 -5 -7 -9 -15 -9 -15 0 -20 12 -9 23 8 8 24 -1 24 -14z
m140 -39 c0 -16 -6 -19 -35 -18 -41 1 -44 9 -12 24 34 18 47 16 47 -6z m538
-344 c-8 -6 -19 -27 -25 -46 l-11 -35 3 35 c2 19 4 40 4 47 1 6 9 19 19 29 16
17 17 17 21 -1 2 -10 -3 -23 -11 -29z m393 -48 c-12 -24 -18 -32 -15 -18 9 38
29 81 32 71 2 -6 -6 -29 -17 -53z m-237 -169 c-8 -14 -24 -10 -24 6 0 9 6 12
15 9 8 -4 12 -10 9 -15z m-227 -102 c-14 -29 -18 -14 -10 39 7 49 7 49 13 14
4 -19 2 -43 -3 -53z m323 45 c0 -11 -35 -52 -44 -52 -4 0 2 14 14 30 22 31 30
37 30 22z m-360 -53 c0 -6 -4 -7 -10 -4 -5 3 -10 11 -10 16 0 6 5 7 10 4 6 -3
10 -11 10 -16z m20 -38 c0 -18 -21 -64 -26 -58 -9 8 6 67 17 67 5 0 9 -4 9 -9z
m235 -161 c3 -5 -1 -10 -10 -10 -9 0 -13 5 -10 10 3 6 8 10 10 10 2 0 7 -4 10
-10z m-75 -4 c0 -2 -9 -6 -20 -9 -11 -3 -18 -1 -14 4 5 9 34 13 34 5z m-249
-29 c-10 -9 -11 -8 -5 6 3 10 9 15 12 12 3 -3 0 -11 -7 -18z m153 -3 c9 -3 13
-10 10 -15 -8 -14 -21 -11 -28 6 -6 17 -4 18 18 9z m23 -120 c-3 -3 -12 -4
-19 -1 -8 3 -5 6 6 6 11 1 17 -2 13 -5z m-217 -59 c0 -8 -4 -15 -10 -15 -5 0
-7 7 -4 15 4 8 8 15 10 15 2 0 4 -7 4 -15z m314 -71 c-15 -57 -19 -63 -26 -44
-5 14 -5 26 1 29 5 3 15 25 21 49 21 68 24 39 4 -34z m-64 62 c0 -11 -19 -15
-25 -6 -3 5 1 10 9 10 9 0 16 -2 16 -4z m-220 -56 c0 -5 -4 -10 -10 -10 -5 0
-10 5 -10 10 0 6 5 10 10 10 6 0 10 -4 10 -10z m160 0 c0 -5 -4 -10 -10 -10
-5 0 -10 5 -10 10 0 6 5 10 10 10 6 0 10 -4 10 -10z m-207 -21 c-8 -8 -5 -18
14 -35 14 -13 29 -22 33 -19 4 3 13 -2 19 -9 14 -17 -2 -32 -21 -20 -6 4 -8 3
-4 -4 3 -6 1 -17 -6 -24 -19 -21 -38 -56 -38 -71 0 -15 -37 -53 -44 -46 -2 2
4 21 14 41 10 20 15 39 13 42 -3 3 -2 13 1 23 6 15 8 15 16 3 8 -13 10 -12 10
3 0 9 -4 17 -10 17 -5 0 -10 13 -10 29 0 17 -4 32 -9 35 -4 3 -35 -1 -67 -10
-33 -8 -88 -22 -124 -29 -36 -8 -114 -26 -175 -41 -60 -14 -216 -47 -345 -74
-309 -64 -498 -108 -520 -120 -20 -11 -146 -28 -255 -35 l-70 -5 70 25 c76 27
112 35 283 65 62 11 122 24 132 30 10 5 29 10 42 10 13 0 59 10 103 21 145 37
160 41 203 44 23 1 49 8 57 15 8 6 23 9 35 5 12 -4 28 -1 36 6 8 7 25 14 37
15 43 5 122 27 136 38 12 9 13 8 8 -6 -4 -12 -2 -18 7 -18 25 0 46 12 46 26 0
8 7 14 16 14 10 0 14 -6 10 -15 -8 -21 14 -19 30 2 9 13 27 18 66 19 75 1 77
2 71 24 -3 11 0 20 6 20 6 0 11 -7 11 -16 0 -13 7 -15 38 -9 20 4 60 15 87 25
62 23 61 22 48 9z m237 1 c0 -5 -4 -10 -10 -10 -5 0 -10 5 -10 10 0 6 5 10 10
10 6 0 10 -4 10 -10z m-70 -10 c0 -5 -2 -10 -4 -10 -3 0 -8 5 -11 10 -3 6 -1
10 4 10 6 0 11 -4 11 -10z m-330 -350 c0 -5 -5 -10 -11 -10 -5 0 -7 5 -4 10 3
6 8 10 11 10 2 0 4 -4 4 -10z m-1493 -6 c-3 -3 -12 -4 -19 -1 -8 3 -5 6 6 6
11 1 17 -2 13 -5z m1463 -12 c0 -5 -7 -17 -15 -28 -14 -18 -14 -17 -4 9 12 27
19 34 19 19z m195 -22 c-5 -8 -11 -8 -17 -2 -6 6 -7 16 -3 22 5 8 11 8 17 2 6
-6 7 -16 3 -22z m-1259 5 c4 -8 3 -23 0 -32 -6 -15 -8 -15 -23 -1 -16 17 -12
48 7 48 6 0 13 -7 16 -15z m1192 -47 c-2 -12 -9 -23 -15 -26 -19 -6 -29 28
-12 39 23 14 31 10 27 -13z m44 6 c-24 -17 -39 -14 -27 5 3 6 16 11 28 11 l21
0 -22 -16z"/>
<path d="M4069 3987 c-9 -7 -14 -18 -12 -24 3 -7 -2 -13 -11 -13 -10 0 -13 -6
-10 -15 9 -23 22 -18 44 18 29 47 24 61 -11 34z"/>
<path d="M4755 4326 c-16 -6 -52 -26 -79 -44 -28 -17 -55 -32 -60 -32 -6 0
-19 -7 -28 -14 -16 -12 -16 -18 11 -93 36 -103 36 -103 72 -103 19 0 29 -5 29
-15 0 -11 -7 -14 -25 -11 -29 5 -29 6 -10 -30 8 -16 15 -42 15 -58 0 -26 2
-28 33 -23 24 3 38 -1 55 -17 32 -29 98 -31 106 -3 4 17 11 19 45 14 44 -5 50
-1 25 17 -16 12 -23 71 -40 324 l-7 103 -56 -2 c-31 -1 -69 -7 -86 -13z m65
-436 c0 -5 -4 -10 -10 -10 -5 0 -10 5 -10 10 0 6 5 10 10 10 6 0 10 -4 10 -10z"/>
<path d="M4508 4273 c7 -3 16 -2 19 1 4 3 -2 6 -13 5 -11 0 -14 -3 -6 -6z"/>
<path d="M4350 4240 c0 -5 5 -10 10 -10 6 0 10 5 10 10 0 6 -4 10 -10 10 -5 0
-10 -4 -10 -10z"/>
<path d="M4330 4180 c0 -5 5 -10 10 -10 6 0 10 5 10 10 0 6 -4 10 -10 10 -5 0
-10 -4 -10 -10z"/>
<path d="M4295 4160 c4 -6 11 -8 16 -5 14 9 11 15 -7 15 -8 0 -12 -5 -9 -10z"/>
<path d="M4252 4094 c-7 -8 -8 -14 -3 -14 10 0 25 19 20 25 -2 1 -10 -3 -17
-11z"/>
<path d="M4730 3840 c0 -5 5 -10 11 -10 5 0 7 5 4 10 -3 6 -8 10 -11 10 -2 0
-4 -4 -4 -10z"/>
<path d="M4420 3710 c0 -5 9 -10 21 -10 11 0 17 5 14 10 -3 6 -13 10 -21 10
-8 0 -14 -4 -14 -10z"/>
<path d="M4365 2680 c-3 -5 -1 -10 4 -10 6 0 11 5 11 10 0 6 -2 10 -4 10 -3 0
-8 -4 -11 -10z"/>
<path d="M4395 2680 c3 -5 8 -10 11 -10 2 0 4 5 4 10 0 6 -5 10 -11 10 -5 0
-7 -4 -4 -10z"/>
<path d="M4880 2680 c-9 -6 -10 -10 -3 -10 6 0 15 5 18 10 8 12 4 12 -15 0z"/>
<path d="M4377 2654 c-3 -4 0 -19 8 -35 19 -35 19 -80 1 -122 -10 -24 -28 -40
-67 -60 -30 -14 -62 -29 -73 -32 -18 -5 -17 -7 4 -25 13 -11 29 -20 37 -20 7
0 13 -3 13 -7 0 -8 52 -34 104 -53 22 -8 26 -13 17 -24 -9 -11 -6 -13 14 -10
14 1 32 -4 40 -13 8 -8 15 -11 15 -6 0 4 6 1 13 -7 7 -8 26 -23 44 -33 l32
-18 7 36 c3 20 4 53 0 74 -7 44 2 58 19 34 12 -16 13 -15 12 2 -2 25 24 95 34
95 5 0 6 9 4 19 -2 11 9 33 26 52 16 18 29 40 29 50 0 9 7 22 15 29 8 7 15 9
15 5 0 -4 7 -2 15 5 21 17 19 1 -2 -23 -10 -10 -18 -24 -18 -30 -1 -26 -30
-87 -42 -87 -10 0 -33 -29 -33 -43 0 -3 9 -7 20 -10 13 -3 20 0 20 9 0 8 7 14
15 14 8 0 15 -7 15 -15 0 -8 4 -15 9 -15 4 0 6 11 3 25 -3 19 0 25 12 25 14 0
14 3 -4 23 -15 15 -17 23 -8 25 7 1 23 18 36 37 25 39 42 45 39 15 -1 -11 -7
-20 -14 -20 -7 0 -13 -6 -13 -14 0 -8 -5 -16 -11 -18 -6 -2 -7 -12 -1 -28 l9
-25 8 24 c5 18 12 21 31 17 20 -5 24 -3 24 15 0 11 7 27 15 36 8 8 13 19 10
24 -10 16 -21 10 -32 -18 l-12 -28 6 30 c10 62 14 67 39 62 16 -3 23 0 21 7
-2 6 0 19 5 29 7 13 5 17 -9 18 -47 3 -70 -4 -90 -29 l-23 -27 0 29 c0 26 -2
28 -35 24 -19 -2 -35 0 -35 4 0 9 -324 11 -333 2z m241 -189 c-2 -10 -7 -12
-17 -5 -13 7 -13 11 -1 25 15 18 24 8 18 -20z m7 -34 c3 -5 1 -12 -5 -16 -5
-3 -10 1 -10 9 0 18 6 21 15 7z"/>
<path d="M4960 2584 c0 -8 5 -12 10 -9 6 3 10 10 10 16 0 5 -4 9 -10 9 -5 0
-10 -7 -10 -16z"/>
<path d="M2510 2550 c-8 -5 -11 -12 -7 -16 4 -4 13 -2 19 4 15 15 7 24 -12 12z"/>
<path d="M4015 2548 c-14 -43 -8 -67 15 -61 15 4 20 0 20 -15 0 -11 7 -23 16
-26 9 -3 12 -2 9 4 -4 6 8 16 25 23 l31 13 -25 12 c-18 8 -24 16 -19 29 5 14
1 13 -16 -4 -23 -24 -41 -30 -41 -14 0 5 5 11 11 13 12 4 1 38 -12 38 -5 0
-12 -6 -14 -12z"/>
<path d="M3113 2543 c-28 -5 -30 -23 -4 -23 28 0 52 11 45 21 -3 5 -8 8 -12 8
-4 -1 -17 -4 -29 -6z"/>
<path d="M4158 2503 c-10 -3 -18 -11 -18 -20 0 -11 4 -13 13 -6 6 6 19 12 27
15 19 6 -1 15 -22 11z"/>
<path d="M1680 2430 c0 -5 9 -10 21 -10 11 0 17 5 14 10 -3 6 -13 10 -21 10
-8 0 -14 -4 -14 -10z"/>
<path d="M1788 2432 c-16 -2 -28 -8 -28 -13 0 -13 47 -11 55 2 9 14 5 15 -27
11z"/>
<path d="M2475 2410 c-3 -5 -1 -10 4 -10 6 0 11 5 11 10 0 6 -2 10 -4 10 -3 0
-8 -4 -11 -10z"/>
<path d="M1918 2383 c-10 -2 -18 -13 -18 -24 0 -22 15 -25 27 -6 6 10 14 39
10 36 -1 -1 -10 -3 -19 -6z"/>
<path d="M3925 2383 c-16 -2 -62 -11 -102 -19 -40 -7 -75 -14 -78 -14 -10 0 2
-44 14 -48 18 -6 86 -76 83 -85 -1 -4 6 -10 15 -14 26 -9 63 -44 63 -60 0 -7
6 -13 13 -13 7 0 20 -8 28 -17 9 -10 32 -31 52 -47 20 -17 33 -34 30 -39 -3
-6 -1 -7 4 -4 6 4 16 0 23 -8 11 -13 19 -11 65 15 62 35 69 37 53 10 -7 -11
-18 -20 -25 -20 -7 0 -13 -4 -13 -8 0 -5 -12 -12 -26 -18 l-26 -9 50 -53 c28
-29 53 -49 56 -44 3 6 20 7 39 2 35 -8 83 12 55 23 -10 4 -10 8 2 17 13 10 13
11 -2 6 -10 -3 -20 0 -24 5 -3 6 -17 9 -30 6 -13 -2 -24 -2 -24 0 0 11 31 34
50 38 11 2 25 7 32 11 8 5 9 2 4 -11 -5 -15 -4 -16 9 -5 15 13 13 21 -14 55
-9 11 -10 15 -2 8 10 -8 20 -9 32 -2 21 11 41 9 51 -6 5 -6 8 -6 8 2 0 6 -4
15 -10 18 -5 3 -10 15 -10 26 0 24 20 26 21 2 0 -11 3 -13 6 -5 2 6 13 12 23
12 10 0 20 9 23 21 4 16 10 19 27 14 19 -6 21 -4 15 14 -4 14 -2 21 7 21 7 0
-9 15 -37 32 -50 32 -100 44 -111 27 -7 -12 -24 -12 -24 0 0 5 12 12 26 15 26
7 26 8 8 20 -10 8 -72 41 -136 75 -114 60 -118 61 -190 60 -40 -1 -86 -4 -103
-6z m449 -210 c-9 -35 -14 -42 -14 -18 0 15 -3 16 -12 7 -23 -23 -28 -12 -6
12 30 33 40 32 32 -1z m-119 -33 c3 -5 2 -10 -4 -10 -5 0 -13 5 -16 10 -3 6
-2 10 4 10 5 0 13 -4 16 -10z m-35 -9 c0 -5 -7 -12 -16 -15 -14 -5 -15 -4 -4
9 14 17 20 19 20 6z m70 -1 c0 -5 -5 -10 -11 -10 -5 0 -7 5 -4 10 3 6 8 10 11
10 2 0 4 -4 4 -10z m-34 -37 c-10 -10 -19 5 -10 18 6 11 8 11 12 0 2 -7 1 -15
-2 -18z m101 -13 c2 -15 -3 -20 -20 -19 -12 0 -16 3 -9 6 6 2 12 14 12 26 0
24 13 15 17 -13z"/>
<path d="M4656 2377 c3 -10 9 -15 12 -12 3 3 0 11 -7 18 -10 9 -11 8 -5 -6z"/>
<path d="M2726 2364 c-5 -14 -4 -15 9 -4 17 14 19 20 6 20 -5 0 -12 -7 -15
-16z"/>
<path d="M2105 2349 c-4 -6 -5 -12 -2 -15 2 -3 7 2 10 11 7 17 1 20 -8 4z"/>
<path d="M3595 2310 c-3 -5 4 -10 15 -10 22 0 21 -1 -6 -47 -15 -27 -38 -62
-51 -79 -23 -31 -30 -72 -14 -89 8 -9 55 -134 84 -224 6 -18 16 -35 23 -38 6
-2 40 7 74 21 35 14 66 26 69 26 14 0 -39 -29 -74 -40 -56 -18 -67 -28 -55
-51 9 -15 15 -17 36 -9 32 13 44 13 44 0 0 -5 -11 -12 -25 -16 -34 -8 -44 -25
-34 -52 7 -20 12 -21 30 -12 11 7 23 9 26 6 4 -3 12 -1 20 5 7 6 13 9 13 5 0
-4 18 3 40 14 23 12 38 25 35 31 -4 5 -12 7 -18 3 -7 -3 -3 2 7 10 21 17 36
21 36 9 0 -5 11 -8 26 -8 19 0 24 4 20 17 -2 10 0 21 5 24 5 3 9 -4 9 -15 0
-14 5 -19 15 -15 8 4 13 10 10 14 -3 5 -1 11 4 14 5 4 8 -5 7 -19 -3 -22 0
-24 23 -19 14 4 36 13 48 20 12 8 29 14 38 14 8 0 15 5 15 11 0 5 -4 7 -10 4
-5 -3 -10 -1 -10 5 0 7 12 10 27 8 39 -4 43 27 6 60 -54 51 -86 77 -79 65 9
-17 -13 -28 -27 -13 -9 10 -9 14 1 17 22 8 11 27 -46 77 -57 50 -212 188 -242
216 -31 31 -87 70 -98 70 -6 0 -14 -4 -17 -10z m395 -380 c0 -9 -50 -33 -70
-34 -17 -1 -40 -20 -40 -33 0 -4 -9 -14 -19 -20 -17 -11 -19 -10 -16 7 3 13
-2 20 -13 20 -23 0 -7 13 60 48 52 27 98 33 98 12z m70 -35 c-12 -15 -30 -12
-30 6 0 5 10 9 21 9 18 0 19 -2 9 -15z m-43 -27 c-3 -8 -6 -5 -6 6 -1 11 2 17
5 13 3 -3 4 -12 1 -19z"/>
<path d="M3465 2300 c-7 -12 -8 -11 27 -15 16 -2 29 2 32 11 3 8 1 14 -4 14
-6 0 -10 -5 -10 -12 0 -9 -3 -9 -12 0 -15 15 -25 15 -33 2z"/>
<path d="M2573 2289 c-32 -12 -42 -37 -31 -73 29 -90 53 -107 44 -30 -3 20 1
52 9 70 15 37 10 46 -22 33z"/>
<path d="M3508 2254 c-29 -15 -35 -28 -18 -39 6 -3 10 -14 10 -24 0 -10 7 -24
15 -31 12 -10 15 -9 16 6 1 21 5 47 14 81 6 27 0 28 -37 7z"/>
<path d="M2335 2245 c-5 -2 -43 -13 -83 -26 -49 -15 -81 -32 -97 -50 -25 -31
-94 -68 -172 -93 -29 -10 -53 -22 -53 -28 0 -12 68 -127 87 -146 7 -7 16 -19
20 -26 5 -7 31 -16 58 -22 40 -7 50 -13 50 -29 0 -16 -6 -19 -29 -17 -27 3
-28 1 -22 -25 8 -33 31 -53 61 -53 12 0 29 -8 39 -19 15 -16 15 -19 1 -31 -13
-11 -13 -15 -3 -21 20 -13 38 -10 32 5 -9 22 13 28 40 11 30 -20 150 -32 160
-16 9 14 59 -17 53 -33 -3 -6 8 -12 24 -13 106 -7 114 -6 140 17 l26 24 -39
85 c-22 47 -53 115 -70 151 -43 94 -48 97 -69 53 -30 -61 -60 -107 -75 -116
-8 -4 -14 -17 -14 -27 0 -11 -4 -20 -9 -20 -5 0 -16 -16 -26 -36 -19 -40 -78
-83 -83 -60 -3 15 64 146 145 283 43 73 52 95 44 110 -5 10 -24 51 -42 91 -32
71 -43 84 -52 60 -3 -8 -6 -6 -6 5 -1 16 -12 20 -36 12z m-110 -455 c3 -5 -1
-10 -10 -10 -9 0 -13 5 -10 10 3 6 8 10 10 10 2 0 7 -4 10 -10z m237 -25 c-12
-22 -27 -2 -18 22 5 12 10 13 17 6 7 -7 8 -17 1 -28z m3 -75 c-5 -8 -11 -8
-17 -2 -6 6 -7 16 -3 22 5 8 11 8 17 2 6 -6 7 -16 3 -22z m134 -62 c1 -5 -4
-8 -10 -8 -5 0 -8 4 -4 9 3 5 1 12 -5 16 -6 4 -7 11 -3 18 6 10 20 -13 22 -35z"/>
<path d="M1547 2204 c-9 -10 2 -24 19 -24 8 0 14 7 14 15 0 15 -21 21 -33 9z"/>
<path d="M4417 2066 c-4 -10 -1 -13 9 -9 15 6 19 23 5 23 -5 0 -11 -7 -14 -14z"/>
<path d="M3456 2035 c5 -13 -14 -48 -163 -291 -29 -47 -53 -89 -53 -93 0 -5
12 -6 28 -4 l27 4 -27 -16 c-32 -18 -37 -30 -9 -22 14 3 18 1 14 -9 -7 -19 11
-18 27 1 7 8 18 15 24 14 7 0 6 -2 -1 -6 -7 -2 -13 -11 -13 -18 0 -16 36 -9
43 8 3 8 41 12 115 12 61 0 108 3 106 7 -2 3 1 10 7 14 6 3 15 1 19 -6 19 -30
19 30 1 81 -11 30 -27 74 -36 99 -33 94 -98 240 -106 240 -5 0 -6 -7 -3 -15z
m67 -382 c-7 -2 -19 -2 -25 0 -7 3 -2 5 12 5 14 0 19 -2 13 -5z"/>
<path d="M1721 1971 c-53 -17 -91 -49 -91 -76 0 -8 -34 -44 -75 -81 -52 -47
-75 -74 -75 -90 0 -26 -18 -38 -75 -49 -22 -5 -42 -9 -45 -10 -3 -1 -24 -7
-48 -14 -23 -6 -41 -15 -38 -19 10 -16 338 3 386 22 24 9 70 17 135 23 33 3
78 12 100 19 22 8 56 14 76 14 20 0 39 3 42 7 4 4 -14 28 -40 53 -27 26 -73
86 -103 133 -61 96 -61 96 -149 68z m152 -143 c8 -29 -1 -41 -27 -34 -14 4
-33 -4 -58 -24 -40 -33 -71 -40 -61 -15 3 9 23 25 45 36 21 11 48 29 58 39 26
26 36 25 43 -2z m-240 -80 c20 -11 17 -13 -37 -29 -58 -18 -76 -17 -76 1 0 12
50 39 73 40 10 0 28 -5 40 -12z"/>
<path d="M4328 1893 c-27 -7 -22 -23 7 -23 16 0 25 6 25 15 0 15 -2 16 -32 8z"/>
<path d="M3926 1751 c-3 -5 1 -11 9 -15 9 -3 15 0 15 9 0 16 -16 20 -24 6z"/>
<path d="M3225 1739 c-4 -6 -5 -12 -2 -15 2 -3 7 2 10 11 7 17 1 20 -8 4z"/>
<path d="M2093 1683 c-32 -12 4 -38 38 -28 27 9 24 35 -3 34 -13 0 -29 -3 -35
-6z"/>
<path d="M1920 1661 c-41 -10 -104 -26 -139 -37 -55 -15 -61 -19 -40 -25 31
-9 162 -11 183 -3 9 3 16 13 16 21 0 8 16 21 35 29 20 8 33 19 30 24 -3 6 -7
10 -8 9 -1 0 -36 -9 -77 -18z"/>
<path d="M1610 1586 c0 -11 33 -36 41 -31 19 12 9 35 -16 35 -14 0 -25 -2 -25
-4z"/>
<path d="M1710 1500 c0 -5 6 -10 14 -10 8 0 18 5 21 10 3 6 -3 10 -14 10 -12
0 -21 -4 -21 -10z"/>
<path d="M3157 1503 c-4 -3 -7 -11 -7 -17 0 -6 5 -5 12 2 6 6 9 14 7 17 -3 3
-9 2 -12 -2z"/>
<path d="M910 1395 c-14 -17 -5 -36 15 -28 16 6 21 43 6 43 -5 0 -14 -7 -21
-15z"/>
<path d="M2848 1113 c7 -3 16 -2 19 1 4 3 -2 6 -13 5 -11 0 -14 -3 -6 -6z"/>
<path d="M2740 1039 l-35 -18 28 -1 c16 0 30 6 33 15 4 8 11 12 17 8 6 -3 7
-1 3 5 -4 7 -8 12 -9 11 -1 -1 -18 -9 -37 -20z"/>
<path d="M2785 1020 c-3 -5 3 -10 14 -10 12 0 21 5 21 10 0 6 -6 10 -14 10 -8
0 -18 -4 -21 -10z"/>
<path d="M2660 940 c0 -5 5 -10 11 -10 5 0 7 -6 3 -12 -5 -9 -2 -9 9 1 23 18
21 31 -3 31 -11 0 -20 -4 -20 -10z"/>
<path d="M2816 693 c-6 -14 -5 -15 5 -6 7 7 10 15 7 18 -3 3 -9 -2 -12 -12z"/>
<path d="M2536 684 c-3 -9 -12 -14 -20 -11 -9 4 -12 -2 -8 -19 5 -25 0 -28
-49 -24 -18 1 -32 -6 -43 -22 -14 -19 -16 -20 -16 -4 0 24 -24 15 -28 -11 -3
-18 -13 -21 -75 -27 -40 -3 -83 -8 -97 -10 -22 -4 -88 -11 -290 -31 -25 -3
-106 -12 -180 -21 -74 -8 -200 -19 -280 -24 -80 -4 -156 -11 -170 -14 -14 -2
-88 -7 -164 -11 -194 -8 -402 -38 -428 -62 -40 -36 -15 -56 102 -83 257 -60
370 -84 575 -124 397 -78 592 -122 613 -139 7 -5 14 -8 15 -6 23 32 39 67 53
115 16 59 32 89 42 79 3 -2 0 -11 -7 -19 -7 -8 -16 -38 -22 -68 -5 -29 -11
-60 -13 -68 -3 -8 -5 -20 -5 -26 -1 -7 -11 -15 -23 -19 -22 -6 -22 -7 7 -20
19 -8 34 -10 41 -4 7 6 23 7 35 4 13 -2 36 -8 52 -11 18 -4 27 -2 27 6 0 9 4
9 17 -1 13 -11 17 -11 20 -1 3 6 12 12 22 12 11 0 17 9 19 25 1 14 9 42 17 62
16 37 14 50 -4 38 -6 -3 -8 -12 -5 -18 5 -9 3 -9 -6 0 -11 10 -11 15 0 28 7 8
8 15 2 15 -15 0 -23 -28 -16 -55 4 -17 0 -26 -13 -33 -22 -11 -74 0 -55 12 6
4 17 4 24 0 7 -4 8 -3 4 4 -4 7 0 22 8 34 9 12 16 33 16 46 0 18 4 23 16 18 8
-3 12 -2 9 4 -3 5 1 20 10 34 14 21 14 24 1 29 -9 4 -13 13 -10 21 3 8 1 17
-5 21 -13 7 -15 55 -3 55 4 0 13 -5 20 -12 9 -9 20 -2 46 27 39 42 53 76 60
145 3 25 5 47 6 50 0 3 7 -3 15 -13 18 -25 53 -14 61 19 7 28 21 32 26 7 2
-11 12 -18 27 -18 13 0 26 -6 28 -12 3 -7 -3 -13 -11 -13 -9 0 -19 -7 -22 -15
-4 -8 -15 -15 -26 -15 -10 0 -16 -4 -13 -10 3 -5 -1 -10 -9 -10 -9 0 -16 -4
-16 -10 0 -5 -6 -10 -14 -10 -8 0 -17 -8 -19 -17 -4 -17 -5 -17 -6 0 0 9 -6
17 -12 17 -5 0 -9 -8 -8 -17 2 -10 -3 -29 -10 -42 -9 -17 -10 -26 -2 -34 8 -8
11 -8 11 2 0 7 4 10 9 6 5 -3 16 3 23 13 18 24 72 45 97 37 17 -5 20 -3 14 12
-3 10 -10 24 -16 31 -16 21 1 13 23 -10 12 -13 20 -17 20 -9 0 8 6 11 16 7 11
-4 18 1 21 14 3 11 9 17 14 14 5 -3 9 0 9 5 0 16 -19 13 -36 -4 -9 -8 -20 -15
-25 -15 -15 0 -10 38 7 48 23 13 27 122 5 122 -13 1 -13 2 2 11 9 5 17 17 17
24 0 20 -36 19 -44 -1z m-292 -636 c-7 -11 -34 -10 -34 1 0 6 9 9 19 8 11 0
17 -5 15 -9z"/>
<path d="M2470 650 c0 -5 5 -10 11 -10 5 0 7 5 4 10 -3 6 -8 10 -11 10 -2 0
-4 -4 -4 -10z"/>
<path d="M2348 643 c7 -3 16 -2 19 1 4 3 -2 6 -13 5 -11 0 -14 -3 -6 -6z"/>
<path d="M2138 618 c8 -8 17 -8 34 0 22 10 21 11 -11 11 -27 1 -32 -2 -23 -11z"/>
<path d="M1950 592 c0 -4 9 -8 20 -9 11 -1 18 2 15 8 -7 11 -35 12 -35 1z"/>
<path d="M1810 583 c0 -5 11 -9 25 -9 14 -1 25 2 25 7 0 5 -11 9 -25 9 -14 0
-25 -3 -25 -7z"/>
<path d="M2346 341 c-4 -7 -5 -15 -2 -18 9 -9 19 4 14 18 -4 11 -6 11 -12 0z"/>
<path d="M2290 237 c0 -10 8 -17 18 -17 9 0 13 4 7 8 -5 4 -13 11 -17 16 -5 5
-8 2 -8 -7z"/>
<path d="M714 220 c-20 -8 -33 -36 -47 -98 -3 -12 -1 -38 4 -57 19 -67 -2 -65
564 -64 472 0 506 2 450 15 -33 8 -103 26 -155 39 -52 13 -152 35 -221 49 -69
14 -209 45 -310 70 -217 52 -257 58 -285 46z"/>
<path d="M2310 20 c0 -6 7 -10 15 -10 8 0 15 2 15 4 0 2 -7 6 -15 10 -8 3 -15
1 -15 -4z"/>
</g>
</svg>
