<svg width="65" height="65" viewBox="0 0 65 65" fill="none" xmlns="http://www.w3.org/2000/svg">
<g clip-path="url(#clip0_43_32)">
<path d="M26.7529 49.0804C27.5074 49.8354 28.4033 50.4344 29.3895 50.843C30.3756 51.2517 31.4325 51.462 32.5 51.462C33.5674 51.462 34.6244 51.2517 35.6105 50.843C36.5966 50.4344 37.4925 49.8354 38.247 49.0804L46.9435 40.384C47.4098 39.8683 47.6599 39.193 47.642 38.498C47.6242 37.803 47.3398 37.1415 46.8476 36.6504C46.3555 36.1594 45.6934 35.8763 44.9984 35.86C44.3033 35.8436 43.6286 36.0951 43.1139 36.5625L35.1893 44.4898L35.2083 2.70833C35.2083 1.99004 34.923 1.30116 34.415 0.793253C33.9071 0.285342 33.2183 0 32.5 0C31.7817 0 31.0928 0.285342 30.5849 0.793253C30.077 1.30116 29.7916 1.99004 29.7916 2.70833L29.7673 44.4383L21.886 36.5625C21.3778 36.0547 20.6887 35.7695 19.9703 35.7698C19.2518 35.77 18.5629 36.0557 18.0551 36.5639C17.5472 37.072 17.2621 37.7612 17.2623 38.4796C17.2626 39.198 17.5482 39.887 18.0564 40.3948L26.7529 49.0804Z" fill="#C0B7E8"/>
<path d="M62.2917 43.3333C61.5734 43.3333 60.8845 43.6186 60.3766 44.1265C59.8687 44.6344 59.5833 45.3233 59.5833 46.0416V56.8749C59.5833 57.5932 59.298 58.2821 58.7901 58.79C58.2822 59.2979 57.5933 59.5833 56.875 59.5833H8.125C7.4067 59.5833 6.71783 59.2979 6.20992 58.79C5.70201 58.2821 5.41667 57.5932 5.41667 56.8749V46.0416C5.41667 45.3233 5.13133 44.6344 4.62341 44.1265C4.1155 43.6186 3.42663 43.3333 2.70833 43.3333C1.99004 43.3333 1.30116 43.6186 0.793252 44.1265C0.285341 44.6344 0 45.3233 0 46.0416L0 56.8749C0 59.0298 0.856024 61.0964 2.37976 62.6202C3.90349 64.1439 5.97012 64.9999 8.125 64.9999H56.875C59.0299 64.9999 61.0965 64.1439 62.6202 62.6202C64.144 61.0964 65 59.0298 65 56.8749V46.0416C65 45.3233 64.7147 44.6344 64.2067 44.1265C63.6988 43.6186 63.01 43.3333 62.2917 43.3333Z" fill="#C0B7E8"/>
</g>
<defs>
<clipPath id="clip0_43_32">
<rect width="65" height="65" fill="white"/>
</clipPath>
</defs>
</svg>
