<svg width="48" height="47" viewBox="0 0 48 47" fill="none" xmlns="http://www.w3.org/2000/svg">
<path d="M47.6428 6.08903V40.1579L23.9642 46.7914L0.285645 40.1579V8.02355C0.285645 6.18575 1.14399 4.49691 2.64166 3.39037C3.13299 3.02668 3.67365 2.77906 4.23207 2.58174V37.2407L23.9642 42.7676L43.6964 37.2407V0.647211C44.2548 0.844533 44.7974 1.09215 45.2868 1.45584C46.7844 2.56239 47.6428 4.25123 47.6428 6.08903ZM25.9374 6.80674V34.3988L23.9642 34.9521L21.991 34.3988V6.80674C21.991 4.22995 20.225 1.93367 17.5493 1.19081L14.256 0.418937C11.1561 -0.306509 8.1785 1.99944 8.1785 5.1237V34.5536L23.9642 38.9759L39.7499 34.5536V5.18947C39.7499 2.10004 36.8355 -0.198176 33.7573 0.465366L30.2292 1.22563C27.7015 1.93367 25.9355 4.22995 25.9355 6.80674H25.9374Z" fill="#C0B7E8"/>
</svg>
