<svg width="162" height="108" viewBox="0 0 162 108" fill="none" xmlns="http://www.w3.org/2000/svg">
<path fill-rule="evenodd" clip-rule="evenodd" d="M130.706 15.474H130.733C131.03 15.4829 131.277 15.2493 131.286 14.9522C131.295 14.655 131.062 14.407 130.765 14.398C130.201 14.3658 129.664 14.3389 129.127 14.3389C128.831 14.3389 128.59 14.5797 128.59 14.8768C128.59 15.174 128.831 15.4148 129.127 15.4148C129.632 15.4202 130.169 15.4417 130.706 15.474ZM122.189 16.0765C121.931 16.0823 121.706 15.9039 121.652 15.6515C121.622 15.5109 121.649 15.3641 121.728 15.2438C121.806 15.1235 121.93 15.0398 122.071 15.0113C122.608 14.9037 123.145 14.8015 123.682 14.7208C123.874 14.691 124.067 14.766 124.188 14.9176C124.31 15.0692 124.342 15.2742 124.272 15.4556C124.202 15.6369 124.04 15.767 123.848 15.7968C123.311 15.8775 122.812 15.9743 122.291 16.0819C122.257 16.0849 122.222 16.0831 122.189 16.0765ZM137.489 16.6737C137.541 16.6789 137.593 16.6789 137.645 16.6737L137.672 16.6898C137.864 16.7167 138.055 16.639 138.174 16.486C138.294 16.3331 138.322 16.128 138.25 15.9481C138.177 15.7682 138.014 15.6408 137.822 15.6139C137.285 15.4579 136.748 15.318 136.211 15.1889C135.914 15.119 135.617 15.3033 135.548 15.6004C135.478 15.8975 135.662 16.195 135.959 16.2648C136.469 16.3832 136.984 16.523 137.489 16.6737ZM115.597 18.1262C115.34 18.1256 115.119 17.9426 115.07 17.6895C115.022 17.4356 115.16 17.1829 115.4 17.0879C115.905 16.8835 116.41 16.6898 116.92 16.5069C117.196 16.4156 117.495 16.561 117.594 16.8348C117.693 17.1086 117.556 17.4115 117.286 17.5183C116.791 17.6958 116.297 17.8841 115.803 18.0885C115.725 18.1204 115.64 18.1333 115.556 18.1262H115.597ZM143.832 19.2506C143.91 19.2966 143.999 19.3208 144.09 19.3205C144.336 19.3217 144.552 19.1548 144.613 18.9156C144.674 18.6764 144.564 18.4264 144.347 18.3091C143.875 18.0509 143.386 17.798 142.887 17.5613C142.713 17.4787 142.508 17.4951 142.35 17.6044C142.192 17.7137 142.104 17.8993 142.119 18.0913C142.135 18.2832 142.251 18.4524 142.425 18.5351C142.908 18.761 143.381 19.0031 143.832 19.2506ZM109.349 21.2142C109.158 21.2134 108.982 21.111 108.886 20.9452C108.739 20.6894 108.826 20.3631 109.079 20.2135C109.552 19.9392 110.025 19.6756 110.497 19.4173C110.665 19.3212 110.871 19.3222 111.038 19.4197C111.206 19.5173 111.308 19.6968 111.307 19.8905C111.306 20.0842 111.202 20.2627 111.034 20.3588C110.808 20.4813 110.583 20.6113 110.359 20.741L110.358 20.741C110.12 20.879 109.881 21.0166 109.643 21.1442C109.54 21.2054 109.419 21.23 109.3 21.2142H109.349ZM149.251 23.3338C149.351 23.4364 149.488 23.4946 149.632 23.4952H149.61C149.76 23.5033 149.906 23.4487 150.013 23.3445C150.221 23.1347 150.221 22.7958 150.013 22.586C149.626 22.1933 149.224 21.8113 148.816 21.4509C148.593 21.2551 148.254 21.2767 148.058 21.4993C147.863 21.7222 147.884 22.0616 148.107 22.2578C148.511 22.6165 148.892 22.9751 149.251 23.3338ZM103.497 25.0553C103.326 25.0548 103.165 24.973 103.065 24.8347C102.98 24.7199 102.944 24.576 102.965 24.4347C102.986 24.2934 103.063 24.1664 103.177 24.0816C103.618 23.7588 104.058 23.4467 104.498 23.1347C104.656 23.0242 104.86 23.0062 105.034 23.0874C105.208 23.1686 105.326 23.3368 105.343 23.5285C105.36 23.7203 105.273 23.9065 105.116 24.017L103.816 24.9477C103.719 25.0209 103.6 25.0589 103.478 25.0553H103.497ZM152.462 27.4654C152.736 27.9119 152.994 28.3746 153.241 28.8426C153.332 29.0197 153.514 29.1315 153.713 29.1331C153.903 29.1345 154.079 29.036 154.177 28.8738C154.275 28.7116 154.28 28.5097 154.191 28.3423C154.102 28.184 154.015 28.0258 153.928 27.8682L153.927 27.8671L153.927 27.8665C153.748 27.5427 153.572 27.2222 153.38 26.9113C153.227 26.6577 152.898 26.576 152.645 26.7284C152.392 26.8818 152.31 27.2113 152.462 27.4654ZM98.0432 29.4182L98.0318 29.4181C98.1664 29.415 98.2951 29.3614 98.3922 29.2676L98.3924 29.2675C98.8005 28.9179 99.2086 28.5682 99.6167 28.2293C99.8451 28.0377 99.8752 27.6969 99.6838 27.4681C99.4925 27.2393 99.1523 27.2092 98.9239 27.4008L97.6887 28.4768C97.5213 28.6247 97.4627 28.8609 97.5414 29.0701C97.6189 29.2758 97.8132 29.4132 98.0318 29.4181L98.0217 29.4182H98.0432ZM92.4089 33.829C92.4912 34.0304 92.6864 34.1623 92.9036 34.1632H92.8821C93.0403 34.1704 93.1936 34.1074 93.301 33.991L93.4346 33.8608L93.5867 33.7122C93.8764 33.4291 94.1645 33.1475 94.4557 32.872C94.6639 32.6622 94.6639 32.3233 94.4557 32.1135C94.3549 32.0116 94.2176 31.9544 94.0744 31.9544C93.9312 31.9544 93.7939 32.0116 93.6931 32.1135L92.5277 33.2432C92.3735 33.3965 92.3266 33.6276 92.4089 33.829ZM156.125 35.6749C155.872 35.6822 155.648 35.512 155.588 35.266C155.464 34.728 155.33 34.2277 155.18 33.7328C155.14 33.5958 155.156 33.4486 155.224 33.3235C155.293 33.1984 155.408 33.1057 155.545 33.0657C155.828 32.9821 156.125 33.1431 156.211 33.4261L156.248 33.5605C156.385 34.0498 156.517 34.5202 156.635 35.0132C156.669 35.1523 156.646 35.2992 156.571 35.4214C156.497 35.5436 156.377 35.631 156.238 35.6641L156.125 35.6749ZM87.6674 39.0318C87.7665 39.1247 87.8969 39.1766 88.0326 39.1771H88.0111C88.1766 39.191 88.3392 39.1274 88.4515 39.0049L89.5256 37.8321C89.7038 37.6137 89.6833 37.2944 89.4786 37.1007C89.2739 36.9069 88.9545 36.9045 88.7469 37.0951C88.3763 37.4825 88.0058 37.8752 87.6406 38.2733C87.4396 38.4904 87.4516 38.8295 87.6674 39.0318ZM157.097 42.5932C156.812 42.5937 156.577 42.3719 156.56 42.0875C156.527 41.5495 156.49 41.0116 156.442 40.4736C156.415 40.1765 156.634 39.9139 156.93 39.8872C157.227 39.8605 157.489 40.0796 157.516 40.3768C157.564 40.9147 157.607 41.4527 157.634 41.9907C157.634 42.2756 157.413 42.5115 157.129 42.5286L157.097 42.5932ZM82.8713 44.0747C82.9577 44.265 83.1463 44.388 83.3549 44.39H83.3442C83.5022 44.393 83.6535 44.3261 83.7577 44.2071C84.1224 43.7989 84.4763 43.396 84.8302 42.9932L84.8308 42.9925L84.8318 42.9913C84.9686 42.8486 85.0162 42.6423 84.9558 42.454C84.8954 42.2657 84.7366 42.1258 84.5425 42.0897C84.3484 42.0536 84.1501 42.1271 84.0263 42.2812C83.6557 42.6847 83.3012 43.0935 82.9522 43.5024C82.8165 43.6612 82.785 43.8844 82.8713 44.0747ZM156.925 49.5868H156.968C157.111 49.5854 157.248 49.5267 157.348 49.4236C157.448 49.3205 157.502 49.1817 157.5 49.0381C157.543 48.5001 157.58 47.9622 157.607 47.4242C157.622 47.1289 157.397 46.8767 157.102 46.8593C156.955 46.852 156.812 46.9054 156.705 47.0071C156.598 47.1088 156.538 47.2498 156.538 47.3973C156.506 47.9353 156.474 48.4732 156.431 49.0112C156.409 49.3066 156.63 49.5639 156.925 49.5868ZM78.8438 49.7482C78.7201 49.7472 78.6006 49.7035 78.5054 49.6245C78.2785 49.4366 78.2449 49.1006 78.4302 48.8713L79.456 47.6232C79.575 47.4724 79.7652 47.3965 79.9551 47.4243C80.1451 47.452 80.3058 47.5792 80.3767 47.7578C80.4477 47.9365 80.4181 48.1395 80.2992 48.2903L79.2788 49.5331C79.1762 49.67 79.0147 49.7499 78.8438 49.7482ZM4.11914 54.0574C4.21063 54.1261 4.32164 54.1638 4.436 54.165C4.60789 54.1654 4.7696 54.0834 4.87101 53.9444C5.17713 53.5302 5.50472 53.1106 5.84843 52.7071C6.03974 52.4798 6.01089 52.1402 5.78399 51.9485C5.55709 51.7569 5.21806 51.7858 5.02675 52.0131C4.6723 52.4381 4.32859 52.8739 4.00636 53.3096C3.83321 53.5478 3.88349 53.8811 4.11914 54.0574ZM74.4615 55.2087C74.2551 55.2098 74.0663 55.0923 73.9759 54.9065C73.8854 54.7207 73.9092 54.4994 74.0372 54.3371L75.0415 53.0675C75.1591 52.9107 75.3527 52.8304 75.5466 52.8581C75.7405 52.8857 75.904 53.017 75.9732 53.2005C76.0425 53.384 76.0065 53.5908 75.8793 53.74L74.8804 55.0042C74.7814 55.1298 74.6318 55.2047 74.4722 55.2087H74.4615ZM155.921 56.5159C155.954 56.5216 155.989 56.5216 156.023 56.5159C156.279 56.5254 156.506 56.3518 156.565 56.1017C156.662 55.5637 156.753 55.0258 156.844 54.4878C156.876 54.2956 156.803 54.1011 156.653 53.9775C156.502 53.8539 156.298 53.8201 156.116 53.8887C155.934 53.9574 155.802 54.118 155.77 54.3102C155.686 54.8088 155.601 55.2796 155.512 55.774L155.512 55.7769L155.511 55.7809L155.51 55.7844L155.491 55.8919C155.439 56.1828 155.631 56.4615 155.921 56.5159ZM1.24058 60.3786C1.18894 60.3862 1.13647 60.3862 1.08483 60.3786C0.801675 60.2908 0.643037 59.9898 0.730383 59.7061C0.886126 59.1681 1.07409 58.6571 1.26743 58.1406C1.33099 57.9509 1.49438 57.8123 1.69159 57.7806C1.88881 57.749 2.08726 57.8296 2.2068 57.9899C2.32633 58.1501 2.3472 58.3636 2.26096 58.5441C2.06763 59.0336 1.8904 59.5286 1.72392 60.0181C1.64466 60.212 1.46025 60.3422 1.25132 60.3517L1.24058 60.3786ZM69.8375 60.6476C69.9312 60.7204 70.0464 60.7602 70.1651 60.7605L70.1758 60.7336C70.3338 60.7366 70.4851 60.6697 70.5894 60.5507L71.5775 59.2757C71.7599 59.0395 71.7167 58.6999 71.4809 58.5172C71.2451 58.3345 70.906 58.3778 70.7236 58.614L69.7408 59.8944C69.5605 60.1293 69.6037 60.466 69.8375 60.6476ZM154.412 63.3536C154.362 63.3588 154.311 63.3588 154.261 63.3536C154.124 63.3136 154.009 63.2209 153.941 63.0958C153.872 62.9707 153.856 62.8235 153.896 62.6865C154.03 62.2131 154.175 61.6966 154.32 61.1425C154.356 61.004 154.445 60.8853 154.568 60.8126C154.691 60.7399 154.837 60.7192 154.975 60.7552C155.114 60.7917 155.232 60.8822 155.304 61.0064C155.375 61.1307 155.394 61.2784 155.357 61.4169C155.212 61.9548 155.067 62.4928 154.927 62.9824C154.854 63.2055 154.646 63.3557 154.412 63.3536ZM65.4374 66.0139C65.5288 66.1981 65.7171 66.314 65.9224 66.3124V66.2909C66.0849 66.2872 66.2369 66.2101 66.336 66.0811L67.3295 64.8169C67.4933 64.5803 67.4421 64.2565 67.2134 64.0822C66.9847 63.9078 66.6596 63.9447 66.4756 64.1659L65.4928 65.4463C65.3675 65.6093 65.346 65.8296 65.4374 66.0139ZM0.682049 67.2862C0.412488 67.2888 0.18273 67.0909 0.145002 66.8235C0.069816 66.2855 0.0214818 65.7099 0 65.1612C0 64.864 0.240444 64.6232 0.537046 64.6232C0.833649 64.6232 1.07409 64.864 1.07409 65.1612C1.09193 65.6796 1.13675 66.1968 1.20835 66.7105C1.22819 66.8526 1.19057 66.9967 1.10384 67.1109C1.01712 67.225 0.888474 67.2997 0.746494 67.3184L0.682049 67.2862ZM61.1721 71.5579C61.2621 71.7418 61.4485 71.8584 61.6529 71.8589V71.8374C61.8155 71.8422 61.9715 71.773 62.0772 71.6491L63.0653 70.3741C63.197 70.2236 63.2343 70.0123 63.1622 69.8256C63.0901 69.639 62.9206 69.5078 62.7221 69.4852C62.5236 69.4625 62.3289 69.5522 62.2168 69.7178L61.2286 70.9928C61.104 71.155 61.082 71.3741 61.1721 71.5579ZM2.90005 73.8871C2.69615 73.8814 2.51304 73.7605 2.42745 73.5751C2.16967 73.0747 1.928 72.5744 1.71318 72.0903C1.6554 71.9597 1.6518 71.8115 1.70318 71.6783C1.75455 71.5451 1.85668 71.4378 1.98707 71.3801C2.11739 71.3223 2.26533 71.3186 2.3983 71.3701C2.53127 71.4216 2.63836 71.5239 2.69597 71.6545C2.90542 72.1172 3.13635 72.6013 3.38339 73.0801C3.44879 73.2077 3.46062 73.3562 3.41625 73.4926C3.37188 73.6289 3.27499 73.7419 3.14709 73.8064C3.07065 73.8456 2.98594 73.8659 2.90005 73.8656V73.8871ZM56.9591 77.2171C57.0557 77.2973 57.1774 77.3411 57.3028 77.3409C57.4635 77.3398 57.6152 77.2668 57.7164 77.1418L58.7367 75.883C58.9208 75.6523 58.8848 75.3162 58.6562 75.1298C58.5452 75.0395 58.403 74.9973 58.2608 75.0125C58.1187 75.0276 57.9885 75.0989 57.899 75.2105C57.5606 75.6355 57.2223 76.0497 56.8839 76.464C56.6986 76.6932 56.7322 77.0292 56.9591 77.2171ZM6.72382 79.7241C6.55853 79.725 6.40203 79.6496 6.29955 79.5197C5.95584 79.0839 5.62824 78.6481 5.31139 78.2124C5.22761 78.0963 5.19353 77.9514 5.21672 77.8101C5.23991 77.6687 5.31844 77.5424 5.43491 77.4592C5.67543 77.2881 6.00874 77.3433 6.1814 77.583C6.49289 78.008 6.80975 78.433 7.14271 78.8526C7.27008 79.014 7.29434 79.2341 7.20523 79.4195C7.11612 79.6049 6.92923 79.7231 6.72382 79.7241ZM52.3889 82.5215C52.4874 82.6112 52.6156 82.6611 52.7487 82.6614V82.6345C52.8999 82.6442 53.0481 82.5895 53.1568 82.4839L53.3871 82.225C53.6634 81.9144 53.9455 81.5972 54.2309 81.2734C54.3677 81.1308 54.4153 80.9245 54.3549 80.7362C54.2945 80.5478 54.1358 80.4079 53.9416 80.3718C53.7475 80.3357 53.5492 80.4093 53.4254 80.5633C53.0839 80.9513 52.7425 81.3296 52.4056 81.7028L52.3513 81.763C52.1531 81.9831 52.1699 82.3222 52.3889 82.5215ZM11.4445 84.8725C11.3114 84.8721 11.1831 84.8223 11.0846 84.7326C10.6818 84.3614 10.2844 83.9848 9.90313 83.6082C9.69106 83.4003 9.68746 83.0595 9.89508 82.847C10.1027 82.6346 10.4429 82.631 10.655 82.8389C11.0309 83.2102 11.4176 83.576 11.8096 83.9149C11.9157 84.0115 11.9788 84.1466 11.9848 84.2901C11.9909 84.4336 11.9394 84.5736 11.8419 84.6788C11.7433 84.7975 11.5985 84.868 11.4445 84.8725ZM47.3621 87.3687C47.4631 87.4902 47.6124 87.561 47.7703 87.5624C47.8999 87.5537 48.022 87.4983 48.114 87.4063L48.2375 87.3041C48.6027 86.9921 48.9679 86.6639 49.3438 86.3196C49.5618 86.1176 49.575 85.7768 49.3733 85.5584C49.1717 85.34 48.8314 85.3268 48.6134 85.5288C48.2536 85.8624 47.8938 86.1798 47.5393 86.4864L47.4212 86.6101C47.3129 86.7029 47.2459 86.8349 47.2348 86.9772C47.2237 87.1194 47.2695 87.2602 47.3621 87.3687ZM16.9975 89.1063C16.8951 89.1077 16.7945 89.0797 16.7075 89.0256C16.251 88.7351 15.7945 88.4285 15.3488 88.1165C15.1059 87.9469 15.0459 87.6124 15.2145 87.3687C15.3838 87.1254 15.7177 87.0653 15.961 87.2342C16.396 87.5408 16.8364 87.8313 17.2821 88.1165C17.4811 88.2452 17.5724 88.4893 17.5069 88.7173C17.4413 88.9453 17.2344 89.1034 16.9975 89.1063ZM41.5083 91.0968C41.5983 91.2809 41.785 91.3977 41.9895 91.3981H41.9702C42.0592 91.4019 42.1478 91.3834 42.2279 91.3443C42.7113 91.1022 43.2 90.8386 43.678 90.5642C43.9337 90.4165 44.0224 90.0897 43.8767 89.8326C43.8058 89.7081 43.6883 89.6171 43.5502 89.5797C43.412 89.5423 43.2647 89.5617 43.1409 89.6335C42.6844 89.8971 42.2172 90.15 41.75 90.3759C41.4846 90.5083 41.3765 90.8309 41.5083 91.0968ZM23.2326 92.2266C23.1703 92.2265 23.1086 92.2156 23.05 92.1943C22.513 92.006 22.0296 91.8016 21.5248 91.5864C21.3483 91.5105 21.2256 91.346 21.203 91.1549C21.1804 90.9638 21.2612 90.7751 21.4151 90.66C21.569 90.5448 21.7726 90.5206 21.9491 90.5965C22.4324 90.8063 22.9319 91 23.4206 91.1829C23.6665 91.2723 23.8124 91.5262 23.7659 91.7841C23.7195 92.0421 23.4942 92.2289 23.2326 92.2266ZM34.8846 93.3052C34.993 93.4644 35.178 93.5536 35.3699 93.5392L35.4665 93.5285C36.0036 93.4424 36.5406 93.3348 37.0777 93.2057C37.3648 93.1365 37.5423 92.8482 37.4751 92.5601C37.4431 92.421 37.3572 92.3002 37.2364 92.2246C37.1155 92.1489 36.9695 92.1244 36.8306 92.1566C36.3204 92.2804 35.7995 92.3826 35.2893 92.4633C35.0974 92.4777 34.9278 92.5936 34.8444 92.7672C34.7609 92.9409 34.7762 93.1459 34.8846 93.3052ZM29.9564 93.7437H29.9994L30.0209 93.7329C30.3175 93.7448 30.5675 93.5136 30.5794 93.2164C30.5913 92.9193 30.3605 92.6688 30.0638 92.657C29.5411 92.6139 29.0202 92.5547 28.501 92.4794C28.3092 92.4516 28.117 92.5283 27.997 92.6809C27.877 92.8334 27.8473 93.0384 27.9191 93.2188C27.991 93.3992 28.1534 93.5275 28.3453 93.5554C28.8823 93.6361 29.4194 93.7006 29.9564 93.7437ZM9.27557 49.1296C9.04907 49.1286 8.8473 48.9853 8.77162 48.7711C8.69542 48.5555 8.7637 48.3151 8.94182 48.172C9.65692 47.5951 10.1447 47.2587 10.2557 47.1822C10.2689 47.1731 10.2768 47.1677 10.2791 47.166C10.5265 47.0085 10.8543 47.0789 11.0155 47.3242C11.1767 47.5694 11.1119 47.8988 10.8698 48.0644C10.8698 48.0644 10.3704 48.3979 9.6185 49.0058C9.52046 49.0872 9.39674 49.1311 9.26942 49.1296H9.27557Z" fill="#E6E6E6"/>
<path d="M119.847 100.221H58.146L70.3316 0.792725H125.357L131.104 8.39428L119.847 100.221Z" fill="#433D60"/>
<path d="M113.172 100.221H51.4651L63.6507 0.792725H125.357L113.172 100.221Z" fill="#706A8E"/>
<path d="M110.132 81.3541H58.5757L67.3671 9.65845H118.924L110.132 81.3541Z" fill="#181F27"/>
<path d="M92.7426 50.0549L107.64 50.2325L107.35 52.5404L92.7426 52.2875V50.0549Z" fill="#1E252E"/>
<path d="M51.4651 100.221L58.8871 107.085L118.923 108L119.847 100.221H51.4651Z" fill="#433D60"/>
<path d="M99.0958 29.0579C99.0958 29.0579 101.668 29.2408 102.984 34.0879C104.3 38.935 103.849 52.4651 103.849 52.4651L92.7533 52.2875C92.7533 52.2875 87.2163 32.1512 99.0958 29.0579Z" fill="#57507A"/>
<path d="M5.41982 32.8426L45.7775 -5.2948e-05L66.9587 26.1178L26.6011 58.9604L5.41982 32.8426Z" fill="#8176AF"/>
<path d="M27.4892 21.9312L45.5588 7.22634L49.0569 11.5396L30.9872 26.2446L27.4892 21.9312Z" fill="white"/>
<path opacity="0.46" d="M24.8646 49.0803C23.8998 47.8907 24.0806 46.1444 25.2686 45.1776L30.6067 40.8335C31.7976 39.8644 33.5489 40.0457 34.516 41.2382C35.4808 42.4279 35.3 44.1741 34.112 45.1409L28.7739 49.485C27.583 50.4541 25.8317 50.2728 24.8646 49.0803Z" fill="white"/>
<path opacity="0.46" d="M36.9229 39.271C35.9581 38.0813 36.1389 36.3351 37.3269 35.3683L54.2154 21.6246C55.4063 20.6555 57.1576 20.8367 58.1247 22.0293C59.0895 23.2189 58.9088 24.9652 57.7207 25.932L40.8322 39.6757C39.6414 40.6448 37.89 40.4635 36.9229 39.271Z" fill="white"/>
<ellipse opacity="0.3" cx="17.9373" cy="33.636" rx="3.6734" ry="3.67973" fill="white"/>
<ellipse opacity="0.3" cx="21.6645" cy="30.2845" rx="3.6734" ry="3.67973" fill="white"/>
<path d="M99.0957 29.0578C99.0957 29.0578 93.2581 31.1612 95.2935 47.6394C96.7864 59.7115 91.7436 75.6946 84.2894 75.8883C76.8352 76.082 63.0868 75.4257 63.0868 75.4257C63.0868 75.4257 70.2456 56.8656 68.7634 41.2805C68.5355 39.0986 68.7961 36.8932 69.526 34.8248C70.396 32.4524 72.0125 29.9831 75.02 29.5796C81.0241 28.7619 99.0957 29.0578 99.0957 29.0578Z" fill="#A095D0"/>
<path d="M58.957 76.6308L85.2991 76.0928C85.2991 76.0928 81.282 72.101 81.0296 61.9387L44.795 62.4767C45.4161 65.0988 46.3709 67.63 47.636 70.0083C49.8674 74.1715 54.2408 76.7298 58.957 76.6308Z" fill="#57507A"/>
<path d="M78.2101 14.834L77.2917 20.8754H103.913L104.719 14.834H78.2101Z" fill="#39475F"/>
<path opacity="0.48" d="M85.5408 86.1906C82.6676 83.6729 78.1242 84.1678 76.0941 87.4118C75.5818 88.2 75.3042 89.1181 75.2939 90.0586C75.2939 94.0396 78.0383 96.6488 83.5215 95.5513C87.7051 94.7121 89.3001 89.4776 85.5408 86.1906Z" fill="white"/>
<ellipse cx="147.188" cy="81.5426" rx="14.8117" ry="14.8373" fill="#9084C6"/>
<path d="M73.7311 35.7502C73.5392 35.757 73.3584 35.6606 73.2566 35.4975C73.1549 35.3345 73.1477 35.1294 73.2378 34.9596C73.3279 34.7898 73.5016 34.681 73.6935 34.6743C73.8063 34.6743 85.0359 33.8458 91.0562 34.3838C91.3528 34.4105 91.5716 34.673 91.5449 34.9702C91.5182 35.2673 91.2561 35.4865 90.9595 35.4597C85.052 34.9217 73.8815 35.7341 73.7741 35.7448L73.7311 35.7502Z" fill="white"/>
<path d="M72.8396 43.029C72.543 43.0394 72.2942 42.807 72.2838 42.5099C72.2734 42.2128 72.5054 41.9635 72.802 41.9531C72.9148 41.9531 84.1444 41.1246 90.1647 41.6626C90.4613 41.6893 90.6801 41.9519 90.6535 42.249C90.6268 42.5461 90.3647 42.7653 90.0681 42.7385C84.1606 42.2006 72.9954 43.0183 72.8826 43.0237L72.8396 43.029Z" fill="white"/>
<path d="M72.7376 50.593C72.441 50.6049 72.1909 50.3737 72.179 50.0765C72.1672 49.7794 72.398 49.5289 72.6946 49.5171C72.8074 49.5171 84.0424 48.6886 90.0573 49.2265C90.2492 49.2438 90.4172 49.3624 90.4982 49.5375C90.5792 49.7126 90.5608 49.9176 90.4499 50.0754C90.339 50.2332 90.1525 50.3198 89.9606 50.3025C84.0531 49.7645 72.8879 50.5822 72.7751 50.5876L72.7376 50.593Z" fill="white"/>
<path d="M72.0232 58.1569C71.8313 58.1636 71.6505 58.0673 71.5487 57.9042C71.447 57.7411 71.4398 57.536 71.5299 57.3662C71.62 57.1964 71.7938 57.0876 71.9856 57.0809C72.0984 57.0809 83.328 56.2524 89.3483 56.7958C89.5402 56.8131 89.7083 56.9316 89.7893 57.1067C89.8702 57.2818 89.8518 57.4869 89.7409 57.6447C89.63 57.8025 89.4435 57.889 89.2517 57.8717C83.3441 57.3338 72.179 58.1515 72.0662 58.1569H72.0232Z" fill="white"/>
</svg>
