<svg width="40" height="40" viewBox="0 0 40 40" fill="none" xmlns="http://www.w3.org/2000/svg">
<g clip-path="url(#clip0_103_601)">
<path d="M27.6147 22.6202C26.8563 22.0935 25.818 22.2835 25.2947 23.0402C24.7713 23.7969 24.9597 24.8352 25.7163 25.3585C26.3397 25.7902 26.9213 26.2252 27.463 26.6652H12.538C14.933 24.7185 17.8363 23.1052 20.808 21.4552C28.2413 17.3252 36.6663 12.6452 36.6663 1.6652C36.6663 0.745202 35.9213 -0.00146484 34.9997 -0.00146484C34.078 -0.00146484 33.333 0.745202 33.333 1.6652C33.333 2.24187 33.3047 2.79687 33.2497 3.33187H6.74467C6.69301 2.79187 6.66634 2.23687 6.66634 1.6652C6.66634 0.745202 5.92134 -0.00146484 4.99967 -0.00146484C4.07801 -0.00146484 3.33301 0.745202 3.33301 1.6652C3.33301 10.0335 8.16967 14.4585 12.3847 17.3785C12.6747 17.5802 13.0047 17.6752 13.3313 17.6752C13.8597 17.6752 14.3797 17.4252 14.703 16.9569C15.2263 16.2002 15.038 15.1619 14.2813 14.6385C13.658 14.2069 13.0763 13.7719 12.5347 13.3319H27.4613C25.0663 15.2785 22.163 16.8919 19.1913 18.5419C11.758 22.6719 3.33301 27.3519 3.33301 38.3319C3.33301 39.2519 4.07801 39.9985 4.99967 39.9985C5.92134 39.9985 6.66634 39.2519 6.66634 38.3319C6.66634 37.7552 6.69467 37.2002 6.74968 36.6652H33.2547C33.3063 37.2052 33.333 37.7602 33.333 38.3319C33.333 39.2519 34.078 39.9985 34.9997 39.9985C35.9213 39.9985 36.6663 39.2519 36.6663 38.3319C36.6663 29.9635 31.8297 25.5402 27.6147 22.6202ZM9.27467 10.0002C8.49467 8.9452 7.89967 7.84187 7.47634 6.66687H32.498C32.053 7.8902 31.4447 8.99187 30.7047 10.0002H9.27467ZM7.50134 33.3335C7.94634 32.1102 8.55468 31.0085 9.29467 30.0002H30.7247C31.5047 31.0552 32.0997 32.1585 32.523 33.3335H7.50134Z" fill="#A9A0D5"/>
</g>
<defs>
<clipPath id="clip0_103_601">
<rect width="40" height="40" fill="white"/>
</clipPath>
</defs>
</svg>
